<svg xmlns="http://www.w3.org/2000/svg" xmlns:xlink="http://www.w3.org/1999/xlink" width="500" zoomAndPan="magnify" viewBox="0 0 375 374.999991" height="500" preserveAspectRatio="xMidYMid meet" version="1.0"><defs><g/><clipPath id="4369281959"><path d="M 43.269531 330.300781 L 331.710938 330.300781 L 331.710938 365.875 L 43.269531 365.875 Z M 43.269531 330.300781 " clip-rule="nonzero"/></clipPath><clipPath id="416a8a97ff"><path d="M 98 0 L 217 0 L 217 109 L 98 109 Z M 98 0 " clip-rule="nonzero"/></clipPath><clipPath id="f8f4750dce"><path d="M 188.085938 108.214844 L 98.292969 18.417969 L 126.9375 -10.226562 L 216.734375 79.566406 Z M 188.085938 108.214844 " clip-rule="nonzero"/></clipPath><clipPath id="b415410fc1"><path d="M 47 84 L 217 84 L 217 254 L 47 254 Z M 47 84 " clip-rule="nonzero"/></clipPath><clipPath id="1522c3dd8b"><path d="M 187.578125 253.203125 L 47.851562 113.472656 L 76.496094 84.824219 L 216.226562 224.554688 Z M 187.578125 253.203125 " clip-rule="nonzero"/></clipPath><clipPath id="515f05a57b"><path d="M 165 90 L 322 90 L 322 247 L 165 247 Z M 165 90 " clip-rule="nonzero"/></clipPath><clipPath id="d116017ed3"><path d="M 165.203125 218.117188 L 292.765625 90.554688 L 321.414062 119.203125 L 193.851562 246.765625 Z M 165.203125 218.117188 " clip-rule="nonzero"/></clipPath><clipPath id="5c7e2aea10"><path d="M 266.375 90.542969 L 286.628906 90.542969 L 286.628906 253.1875 L 266.375 253.1875 Z M 266.375 90.542969 " clip-rule="nonzero"/></clipPath><clipPath id="fb23b26ae4"><path d="M 88.183594 63.160156 L 108.441406 63.160156 L 108.441406 253.1875 L 88.183594 253.1875 Z M 88.183594 63.160156 " clip-rule="nonzero"/></clipPath><clipPath id="45ddb9deb1"><path d="M 165 0 L 287 0 L 287 102 L 165 102 Z M 165 0 " clip-rule="nonzero"/></clipPath><clipPath id="12b538dc31"><path d="M 165.730469 73.140625 L 257.984375 -19.117188 L 286.632812 9.527344 L 194.375 101.785156 Z M 165.730469 73.140625 " clip-rule="nonzero"/></clipPath><clipPath id="25abd6c640"><path d="M 60 20 L 182 20 L 182 142 L 60 142 Z M 60 20 " clip-rule="nonzero"/></clipPath><clipPath id="cf95656347"><path d="M 152.742188 141.949219 L 60.027344 49.234375 L 88.671875 20.585938 L 181.390625 113.304688 Z M 152.742188 141.949219 " clip-rule="nonzero"/></clipPath><clipPath id="9ab5863551"><path d="M 47.851562 20.589844 L 88.363281 20.589844 L 88.363281 253.199219 L 47.851562 253.199219 Z M 47.851562 20.589844 " clip-rule="nonzero"/></clipPath><clipPath id="0e62d8a964"><path d="M 286.628906 20.589844 L 327.140625 20.589844 L 327.140625 253.199219 L 286.628906 253.199219 Z M 286.628906 20.589844 " clip-rule="nonzero"/></clipPath><clipPath id="70cbc63d32"><path d="M 47.847656 0 L 327.136719 0 L 327.136719 20.59375 L 47.847656 20.59375 Z M 47.847656 0 " clip-rule="nonzero"/></clipPath><clipPath id="b1e18d911a"><path d="M 194 20 L 317 20 L 317 142 L 194 142 Z M 194 20 " clip-rule="nonzero"/></clipPath><clipPath id="2a217cfb80"><path d="M 194.640625 113.304688 L 287.355469 20.585938 L 316.003906 49.234375 L 223.285156 141.949219 Z M 194.640625 113.304688 " clip-rule="nonzero"/></clipPath><clipPath id="bd11a95aff"><path d="M 154.117188 117.539062 L 221.929688 117.539062 L 221.929688 185.347656 L 154.117188 185.347656 Z M 154.117188 117.539062 " clip-rule="nonzero"/></clipPath><clipPath id="988940dfea"><path d="M 188.023438 117.539062 L 221.929688 151.441406 L 188.023438 185.347656 L 154.117188 151.441406 Z M 188.023438 117.539062 " clip-rule="nonzero"/></clipPath></defs><rect x="-37.5" width="450" fill="#ffffff" y="-37.499999" height="449.999989" fill-opacity="1"/><rect x="-37.5" width="450" fill="#000000" y="-37.499999" height="449.999989" fill-opacity="1"/><g clip-path="url(#4369281959)"><path fill="#ffffff" d="M 331.710938 365.875 L 43.222656 365.875 L 43.222656 330.300781 L 331.710938 330.300781 Z M 331.710938 365.875 " fill-opacity="1" fill-rule="nonzero"/></g><g clip-path="url(#416a8a97ff)"><g clip-path="url(#f8f4750dce)"><path fill="#ffffff" d="M 188.085938 108.214844 L 98.34375 18.46875 L 126.988281 -10.175781 L 216.734375 79.566406 Z M 188.085938 108.214844 " fill-opacity="1" fill-rule="nonzero"/></g></g><g clip-path="url(#b415410fc1)"><g clip-path="url(#1522c3dd8b)"><path fill="#ffffff" d="M 187.578125 253.203125 L 47.816406 113.4375 L 76.464844 84.792969 L 216.226562 224.554688 Z M 187.578125 253.203125 " fill-opacity="1" fill-rule="nonzero"/></g></g><g clip-path="url(#515f05a57b)"><g clip-path="url(#d116017ed3)"><path fill="#ffffff" d="M 165.203125 218.117188 L 292.769531 90.550781 L 321.417969 119.199219 L 193.851562 246.765625 Z M 165.203125 218.117188 " fill-opacity="1" fill-rule="nonzero"/></g></g><g clip-path="url(#5c7e2aea10)"><path fill="#000000" d="M 266.375 253.1875 L 266.375 90.507812 L 286.628906 90.507812 L 286.628906 253.1875 Z M 266.375 253.1875 " fill-opacity="1" fill-rule="nonzero"/></g><g clip-path="url(#fb23b26ae4)"><path fill="#000000" d="M 88.183594 253.1875 L 88.183594 63.128906 L 108.441406 63.128906 L 108.441406 253.1875 Z M 88.183594 253.1875 " fill-opacity="1" fill-rule="nonzero"/></g><g clip-path="url(#45ddb9deb1)"><g clip-path="url(#12b538dc31)"><path fill="#ffffff" d="M 165.730469 73.140625 L 257.933594 -19.066406 L 286.582031 9.578125 L 194.375 101.785156 Z M 165.730469 73.140625 " fill-opacity="1" fill-rule="nonzero"/></g></g><g clip-path="url(#25abd6c640)"><g clip-path="url(#cf95656347)"><path fill="#ffffff" d="M 152.742188 141.949219 L 59.976562 49.183594 L 88.625 20.539062 L 181.390625 113.304688 Z M 152.742188 141.949219 " fill-opacity="1" fill-rule="nonzero"/></g></g><g clip-path="url(#9ab5863551)"><path fill="#ffffff" d="M 47.851562 253.199219 L 47.851562 20.574219 L 88.363281 20.574219 L 88.363281 253.199219 Z M 47.851562 253.199219 " fill-opacity="1" fill-rule="nonzero"/></g><g clip-path="url(#0e62d8a964)"><path fill="#ffffff" d="M 286.628906 253.199219 L 286.628906 20.574219 L 327.140625 20.574219 L 327.140625 253.199219 Z M 286.628906 253.199219 " fill-opacity="1" fill-rule="nonzero"/></g><g clip-path="url(#70cbc63d32)"><path fill="#000000" d="M 327.136719 20.59375 L 47.824219 20.59375 L 47.824219 -19.917969 L 327.136719 -19.917969 Z M 327.136719 20.59375 " fill-opacity="1" fill-rule="nonzero"/></g><g clip-path="url(#b1e18d911a)"><g clip-path="url(#2a217cfb80)"><path fill="#ffffff" d="M 194.640625 113.304688 L 287.40625 20.539062 L 316.050781 49.183594 L 223.285156 141.949219 Z M 194.640625 113.304688 " fill-opacity="1" fill-rule="nonzero"/></g></g><g clip-path="url(#bd11a95aff)"><g clip-path="url(#988940dfea)"><path fill="#ffffff" d="M 154.117188 117.539062 L 221.929688 117.539062 L 221.929688 185.347656 L 154.117188 185.347656 Z M 154.117188 117.539062 " fill-opacity="1" fill-rule="nonzero"/></g></g><g fill="#ffffff" fill-opacity="1"><g transform="translate(60.796489, 320.448249)"><g><path d="M 48.046875 -39.359375 L 48.046875 0 L 38.453125 0 L 38.453125 -23.609375 L 29.65625 0 L 21.921875 0 L 13.0625 -23.65625 L 13.0625 0 L 3.46875 0 L 3.46875 -39.359375 L 14.796875 -39.359375 L 25.84375 -12.109375 L 36.78125 -39.359375 Z M 48.046875 -39.359375 "/></g></g></g><g fill="#ffffff" fill-opacity="1"><g transform="translate(119.093039, 320.448249)"><g><path d="M 13.0625 -39.359375 L 13.0625 0 L 3.46875 0 L 3.46875 -39.359375 Z M 13.0625 -39.359375 "/></g></g></g><g fill="#ffffff" fill-opacity="1"><g transform="translate(142.469026, 320.448249)"><g><path d="M 38.6875 0 L 29.09375 0 L 13.0625 -24.28125 L 13.0625 0 L 3.46875 0 L 3.46875 -39.359375 L 13.0625 -39.359375 L 29.09375 -14.96875 L 29.09375 -39.359375 L 38.6875 -39.359375 Z M 38.6875 0 "/></g></g></g><g fill="#ffffff" fill-opacity="1"><g transform="translate(191.460884, 320.448249)"><g><path d="M 37.5625 -39.359375 L 37.5625 0 L 27.96875 0 L 27.96875 -16.203125 L 13.0625 -16.203125 L 13.0625 0 L 3.46875 0 L 3.46875 -39.359375 L 13.0625 -39.359375 L 13.0625 -23.9375 L 27.96875 -23.9375 L 27.96875 -39.359375 Z M 37.5625 -39.359375 "/></g></g></g><g fill="#ffffff" fill-opacity="1"><g transform="translate(239.275633, 320.448249)"><g><path d="M 27.96875 -6.953125 L 13.28125 -6.953125 L 10.9375 0 L 0.890625 0 L 15.140625 -39.359375 L 26.234375 -39.359375 L 40.484375 0 L 30.328125 0 Z M 25.515625 -14.359375 L 20.625 -28.765625 L 15.8125 -14.359375 Z M 25.515625 -14.359375 "/></g></g></g><g fill="#ffffff" fill-opacity="1"><g transform="translate(287.426709, 320.448249)"><g><path d="M 13.0625 -7.40625 L 25.625 -7.40625 L 25.625 0 L 3.46875 0 L 3.46875 -39.359375 L 13.0625 -39.359375 Z M 13.0625 -7.40625 "/></g></g></g><g fill="#000000" fill-opacity="1"><g transform="translate(86.815958, 351.711776)"><g><path d="M 0.75 -1.96875 L 0.75 -4.0625 L 5.53125 -10.90625 L 8.421875 -10.90625 L 8.421875 -4.21875 L 9.671875 -4.21875 L 9.671875 -1.96875 L 8.421875 -1.96875 L 8.421875 0 L 5.828125 0 L 5.828125 -1.96875 Z M 6.015625 -8.0625 L 3.46875 -4.21875 L 6.015625 -4.21875 Z M 6.015625 -8.0625 "/></g></g></g><g fill="#000000" fill-opacity="1"><g transform="translate(102.880801, 351.711776)"><g><path d="M 0.6875 -5.6875 C 0.6875 -7.425781 1.019531 -8.796875 1.6875 -9.796875 C 2.363281 -10.796875 3.445312 -11.296875 4.9375 -11.296875 C 6.4375 -11.296875 7.519531 -10.796875 8.1875 -9.796875 C 8.863281 -8.796875 9.203125 -7.425781 9.203125 -5.6875 C 9.203125 -3.925781 8.863281 -2.546875 8.1875 -1.546875 C 7.519531 -0.546875 6.4375 -0.046875 4.9375 -0.046875 C 3.445312 -0.046875 2.363281 -0.546875 1.6875 -1.546875 C 1.019531 -2.546875 0.6875 -3.925781 0.6875 -5.6875 Z M 6.65625 -5.6875 C 6.65625 -6.707031 6.539062 -7.488281 6.3125 -8.03125 C 6.09375 -8.582031 5.632812 -8.859375 4.9375 -8.859375 C 4.238281 -8.859375 3.78125 -8.582031 3.5625 -8.03125 C 3.34375 -7.488281 3.234375 -6.707031 3.234375 -5.6875 C 3.234375 -5 3.269531 -4.425781 3.34375 -3.96875 C 3.425781 -3.519531 3.59375 -3.15625 3.84375 -2.875 C 4.09375 -2.601562 4.457031 -2.46875 4.9375 -2.46875 C 5.425781 -2.46875 5.789062 -2.601562 6.03125 -2.875 C 6.28125 -3.15625 6.445312 -3.519531 6.53125 -3.96875 C 6.613281 -4.425781 6.65625 -5 6.65625 -5.6875 Z M 6.65625 -5.6875 "/></g></g></g><g fill="#000000" fill-opacity="1"><g transform="translate(118.566753, 351.711776)"><g><path d="M 0.75 -1.96875 L 0.75 -4.0625 L 5.53125 -10.90625 L 8.421875 -10.90625 L 8.421875 -4.21875 L 9.671875 -4.21875 L 9.671875 -1.96875 L 8.421875 -1.96875 L 8.421875 0 L 5.828125 0 L 5.828125 -1.96875 Z M 6.015625 -8.0625 L 3.46875 -4.21875 L 6.015625 -4.21875 Z M 6.015625 -8.0625 "/></g></g></g><g fill="#000000" fill-opacity="1"><g transform="translate(134.631595, 351.711776)"><g/></g></g><g fill="#000000" fill-opacity="1"><g transform="translate(143.649113, 351.711776)"><g><path d="M 10.453125 0 L 7.859375 0 L 3.53125 -6.5625 L 3.53125 0 L 0.9375 0 L 0.9375 -10.640625 L 3.53125 -10.640625 L 7.859375 -4.046875 L 7.859375 -10.640625 L 10.453125 -10.640625 Z M 10.453125 0 "/></g></g></g><g fill="#000000" fill-opacity="1"><g transform="translate(160.850626, 351.711776)"><g><path d="M 5.96875 0.109375 C 4.96875 0.109375 4.050781 -0.117188 3.21875 -0.578125 C 2.382812 -1.046875 1.722656 -1.695312 1.234375 -2.53125 C 0.742188 -3.375 0.5 -4.3125 0.5 -5.34375 C 0.5 -6.382812 0.742188 -7.316406 1.234375 -8.140625 C 1.722656 -8.972656 2.382812 -9.625 3.21875 -10.09375 C 4.050781 -10.5625 4.96875 -10.796875 5.96875 -10.796875 C 6.96875 -10.796875 7.882812 -10.5625 8.71875 -10.09375 C 9.550781 -9.625 10.207031 -8.972656 10.6875 -8.140625 C 11.164062 -7.316406 11.40625 -6.382812 11.40625 -5.34375 C 11.40625 -4.3125 11.160156 -3.375 10.671875 -2.53125 C 10.191406 -1.695312 9.535156 -1.046875 8.703125 -0.578125 C 7.878906 -0.117188 6.96875 0.109375 5.96875 0.109375 Z M 5.96875 -2.265625 C 6.820312 -2.265625 7.503906 -2.546875 8.015625 -3.109375 C 8.523438 -3.671875 8.78125 -4.414062 8.78125 -5.34375 C 8.78125 -6.289062 8.523438 -7.039062 8.015625 -7.59375 C 7.503906 -8.15625 6.820312 -8.4375 5.96875 -8.4375 C 5.113281 -8.4375 4.429688 -8.160156 3.921875 -7.609375 C 3.410156 -7.054688 3.15625 -6.300781 3.15625 -5.34375 C 3.15625 -4.40625 3.410156 -3.65625 3.921875 -3.09375 C 4.429688 -2.539062 5.113281 -2.265625 5.96875 -2.265625 Z M 5.96875 -2.265625 "/></g></g></g><g fill="#000000" fill-opacity="1"><g transform="translate(178.567429, 351.711776)"><g><path d="M 8.59375 -10.640625 L 8.59375 -8.5625 L 5.78125 -8.5625 L 5.78125 0 L 3.1875 0 L 3.1875 -8.5625 L 0.359375 -8.5625 L 0.359375 -10.640625 Z M 8.59375 -10.640625 "/></g></g></g><g fill="#000000" fill-opacity="1"><g transform="translate(193.328905, 351.711776)"><g/></g></g><g fill="#000000" fill-opacity="1"><g transform="translate(202.346424, 351.711776)"><g><path d="M 7.859375 -10.640625 L 7.859375 -8.5625 L 3.53125 -8.5625 L 3.53125 -6.3125 L 6.78125 -6.3125 L 6.78125 -4.296875 L 3.53125 -4.296875 L 3.53125 0 L 0.9375 0 L 0.9375 -10.640625 Z M 7.859375 -10.640625 "/></g></g></g><g fill="#000000" fill-opacity="1"><g transform="translate(216.441042, 351.711776)"><g><path d="M 5.96875 0.109375 C 4.96875 0.109375 4.050781 -0.117188 3.21875 -0.578125 C 2.382812 -1.046875 1.722656 -1.695312 1.234375 -2.53125 C 0.742188 -3.375 0.5 -4.3125 0.5 -5.34375 C 0.5 -6.382812 0.742188 -7.316406 1.234375 -8.140625 C 1.722656 -8.972656 2.382812 -9.625 3.21875 -10.09375 C 4.050781 -10.5625 4.96875 -10.796875 5.96875 -10.796875 C 6.96875 -10.796875 7.882812 -10.5625 8.71875 -10.09375 C 9.550781 -9.625 10.207031 -8.972656 10.6875 -8.140625 C 11.164062 -7.316406 11.40625 -6.382812 11.40625 -5.34375 C 11.40625 -4.3125 11.160156 -3.375 10.671875 -2.53125 C 10.191406 -1.695312 9.535156 -1.046875 8.703125 -0.578125 C 7.878906 -0.117188 6.96875 0.109375 5.96875 0.109375 Z M 5.96875 -2.265625 C 6.820312 -2.265625 7.503906 -2.546875 8.015625 -3.109375 C 8.523438 -3.671875 8.78125 -4.414062 8.78125 -5.34375 C 8.78125 -6.289062 8.523438 -7.039062 8.015625 -7.59375 C 7.503906 -8.15625 6.820312 -8.4375 5.96875 -8.4375 C 5.113281 -8.4375 4.429688 -8.160156 3.921875 -7.609375 C 3.410156 -7.054688 3.15625 -6.300781 3.15625 -5.34375 C 3.15625 -4.40625 3.410156 -3.65625 3.921875 -3.09375 C 4.429688 -2.539062 5.113281 -2.265625 5.96875 -2.265625 Z M 5.96875 -2.265625 "/></g></g></g><g fill="#000000" fill-opacity="1"><g transform="translate(234.157845, 351.711776)"><g><path d="M 3.484375 -10.640625 L 3.484375 -4.28125 C 3.484375 -3.632812 3.640625 -3.140625 3.953125 -2.796875 C 4.265625 -2.453125 4.722656 -2.28125 5.328125 -2.28125 C 5.941406 -2.28125 6.410156 -2.453125 6.734375 -2.796875 C 7.054688 -3.140625 7.21875 -3.632812 7.21875 -4.28125 L 7.21875 -10.640625 L 9.8125 -10.640625 L 9.8125 -4.296875 C 9.8125 -3.335938 9.609375 -2.53125 9.203125 -1.875 C 8.796875 -1.21875 8.25 -0.722656 7.5625 -0.390625 C 6.882812 -0.0546875 6.128906 0.109375 5.296875 0.109375 C 4.453125 0.109375 3.695312 -0.0507812 3.03125 -0.375 C 2.375 -0.707031 1.851562 -1.203125 1.46875 -1.859375 C 1.082031 -2.523438 0.890625 -3.335938 0.890625 -4.296875 L 0.890625 -10.640625 Z M 3.484375 -10.640625 "/></g></g></g><g fill="#000000" fill-opacity="1"><g transform="translate(250.647028, 351.711776)"><g><path d="M 10.453125 0 L 7.859375 0 L 3.53125 -6.5625 L 3.53125 0 L 0.9375 0 L 0.9375 -10.640625 L 3.53125 -10.640625 L 7.859375 -4.046875 L 7.859375 -10.640625 L 10.453125 -10.640625 Z M 10.453125 0 "/></g></g></g><g fill="#000000" fill-opacity="1"><g transform="translate(267.848531, 351.711776)"><g><path d="M 4.921875 -10.640625 C 6.046875 -10.640625 7.023438 -10.414062 7.859375 -9.96875 C 8.703125 -9.53125 9.351562 -8.90625 9.8125 -8.09375 C 10.269531 -7.289062 10.5 -6.363281 10.5 -5.3125 C 10.5 -4.28125 10.269531 -3.359375 9.8125 -2.546875 C 9.351562 -1.734375 8.703125 -1.101562 7.859375 -0.65625 C 7.015625 -0.21875 6.035156 0 4.921875 0 L 0.9375 0 L 0.9375 -10.640625 Z M 4.765625 -2.25 C 5.742188 -2.25 6.503906 -2.515625 7.046875 -3.046875 C 7.585938 -3.578125 7.859375 -4.332031 7.859375 -5.3125 C 7.859375 -6.300781 7.585938 -7.066406 7.046875 -7.609375 C 6.503906 -8.148438 5.742188 -8.421875 4.765625 -8.421875 L 3.53125 -8.421875 L 3.53125 -2.25 Z M 4.765625 -2.25 "/></g></g></g></svg>